# xmcd CD database file
#
# Track frame offsets:
#	150
#	24359
#	45579
#	67865
#	88433
#	114825
#	134363
#	164085
#	192036
#	215373
#	232807
#	251642
#	278787
#	299815
#
# Disc length: 4206 seconds
#
# Revision: 0
# Processed by: cddbd v1.5.2PL0 Copyright (c) Steve Scherf et al.
# Submitted via: CDex 1.51
#
DISCID=ca106c0e
DTITLE=Brenda Boykin and Jan Luley Trio - See ya later
DYEAR=2016
DGENRE=Jazz
TTITLE0=Gee Baby, aint't I good to you
TTITLE1=Deed I do
TTITLE2=Trouble
TTITLE3=It don't mean a thing
TTITLE4=Have a conversation with your man
TTITLE5=Mood indigo
TTITLE6=Exactly like you
TTITLE7=See you later alligator
TTITLE8=Blue skies
TTITLE9=Make love to me
TTITLE10=Jambalaya
TTITLE11=What a friend we have in Jesus
TTITLE12=Bye bye blues
TTITLE13=It's been al long long time
EXTD=YEAR: 2016
EXTT0=
EXTT1=
EXTT2=
EXTT3=
EXTT4=
EXTT5=
EXTT6=
EXTT7=
EXTT8=
EXTT9=
EXTT10=
EXTT11=
EXTT12=
EXTT13=
PLAYORDER=
